solid STL generated by MeshLab
  facet normal  7.071067e-01 -0.000000e+00  7.071069e-01
    outer loop
      vertex   6.278541e+00 -2.200000e+01 -9.250000e+00
      vertex   8.278542e+00 -2.200000e+01 -1.125000e+01
      vertex   6.278541e+00 -2.050000e+01 -9.250000e+00
    endloop
  endfacet
  facet normal  7.071067e-01  0.000000e+00  7.071069e-01
    outer loop
      vertex   6.278541e+00 -2.050000e+01 -9.250000e+00
      vertex   8.278542e+00 -2.200000e+01 -1.125000e+01
      vertex   8.278542e+00 -2.050000e+01 -1.125000e+01
    endloop
  endfacet
  facet normal  7.071068e-01  0.000000e+00  7.071068e-01
    outer loop
      vertex   8.278542e+00 -2.050000e+01 -1.125000e+01
      vertex   8.278542e+00 -2.200000e+01 -1.125000e+01
      vertex   9.778542e+00 -3.583275e+01 -1.275000e+01
    endloop
  endfacet
  facet normal  7.071068e-01  0.000000e+00  7.071068e-01
    outer loop
      vertex   8.278542e+00 -2.050000e+01 -1.125000e+01
      vertex   9.778542e+00 -3.583275e+01 -1.275000e+01
      vertex   9.778542e+00 -6.667246e+00 -1.275000e+01
    endloop
  endfacet
  facet normal  7.071068e-01  0.000000e+00  7.071068e-01
    outer loop
      vertex   8.278542e+00 -2.200000e+01 -1.125000e+01
      vertex   8.278542e+00 -3.650000e+01 -1.125000e+01
      vertex   9.778542e+00 -3.583275e+01 -1.275000e+01
    endloop
  endfacet
  facet normal  7.071068e-01  0.000000e+00  7.071068e-01
    outer loop
      vertex   9.778542e+00 -6.667246e+00 -1.275000e+01
      vertex   8.278542e+00 -6.000000e+00 -1.125000e+01
      vertex   8.278542e+00 -2.050000e+01 -1.125000e+01
    endloop
  endfacet
  facet normal  0.000000e+00 -0.000000e+00  1.000000e+00
    outer loop
      vertex   6.278541e+00 -3.650000e+01 -9.250000e+00
      vertex   6.278541e+00 -2.200000e+01 -9.250000e+00
      vertex   4.778541e+00 -3.650000e+01 -9.250000e+00
    endloop
  endfacet
  facet normal  0.000000e+00  0.000000e+00  1.000000e+00
    outer loop
      vertex   4.778541e+00 -3.650000e+01 -9.250000e+00
      vertex   6.278541e+00 -2.200000e+01 -9.250000e+00
      vertex   6.278541e+00 -2.050000e+01 -9.250000e+00
    endloop
  endfacet
  facet normal  0.000000e+00  0.000000e+00  1.000000e+00
    outer loop
      vertex   4.778541e+00 -3.650000e+01 -9.250000e+00
      vertex   6.278541e+00 -2.050000e+01 -9.250000e+00
      vertex   4.778541e+00 -6.000000e+00 -9.250000e+00
    endloop
  endfacet
  facet normal -0.000000e+00  0.000000e+00  1.000000e+00
    outer loop
      vertex   4.778541e+00 -6.000000e+00 -9.250000e+00
      vertex   6.278541e+00 -2.050000e+01 -9.250000e+00
      vertex   6.278541e+00 -6.000000e+00 -9.250000e+00
    endloop
  endfacet
  facet normal  0.000000e+00  1.000000e+00  0.000000e+00
    outer loop
      vertex   6.278541e+00 -2.050000e+01 -9.250000e+00
      vertex   8.278542e+00 -2.050000e+01 -1.125000e+01
      vertex   6.278541e+00 -2.050000e+01 -1.375000e+01
    endloop
  endfacet
  facet normal  0.000000e+00  1.000000e+00  0.000000e+00
    outer loop
      vertex   6.278541e+00 -2.050000e+01 -1.375000e+01
      vertex   8.278542e+00 -2.050000e+01 -1.125000e+01
      vertex   8.278542e+00 -2.050000e+01 -1.375000e+01
    endloop
  endfacet
  facet normal -9.993511e-01  0.000000e+00  3.601902e-02
    outer loop
      vertex   8.278542e+00 -6.000000e+00 -1.125000e+01
      vertex   8.188436e+00 -6.225000e+00 -1.375000e+01
      vertex   8.278542e+00 -2.050000e+01 -1.125000e+01
    endloop
  endfacet
  facet normal -9.999800e-01 -6.312029e-03 -0.000000e+00
    outer loop
      vertex   8.278542e+00 -2.050000e+01 -1.125000e+01
      vertex   8.188436e+00 -6.225000e+00 -1.375000e+01
      vertex   8.278542e+00 -2.050000e+01 -1.375000e+01
    endloop
  endfacet
  facet normal  3.225027e-01  9.416498e-01 -9.637222e-02
    outer loop
      vertex   8.278542e+00 -6.000000e+00 -1.125000e+01
      vertex   9.778542e+00 -6.667246e+00 -1.275000e+01
      vertex   8.188436e+00 -6.225000e+00 -1.375000e+01
    endloop
  endfacet
  facet normal  2.679534e-01  9.634319e-01  0.000000e+00
    outer loop
      vertex   8.188436e+00 -6.225000e+00 -1.375000e+01
      vertex   9.778542e+00 -6.667246e+00 -1.275000e+01
      vertex   9.778542e+00 -6.667246e+00 -1.525000e+01
    endloop
  endfacet
  facet normal  4.012365e-01  9.019979e-01  1.594022e-01
    outer loop
      vertex   8.188436e+00 -6.225000e+00 -1.375000e+01
      vertex   9.778542e+00 -6.667246e+00 -1.525000e+01
      vertex   8.278542e+00 -6.000000e+00 -1.525000e+01
    endloop
  endfacet
  facet normal  7.071068e-01  0.000000e+00  7.071068e-01
    outer loop
      vertex  -2.221459e+00 -6.000000e+00 -1.375000e+01
      vertex  -6.721459e+00 -6.000000e+00 -9.250000e+00
      vertex  -2.221459e+00 -7.500000e+00 -1.375000e+01
    endloop
  endfacet
  facet normal  7.071068e-01  0.000000e+00  7.071068e-01
    outer loop
      vertex  -2.221459e+00 -7.500000e+00 -1.375000e+01
      vertex  -6.721459e+00 -6.000000e+00 -9.250000e+00
      vertex  -6.721459e+00 -7.500000e+00 -9.250000e+00
    endloop
  endfacet
  facet normal  0.000000e+00 -1.000000e+00  0.000000e+00
    outer loop
      vertex  -2.221459e+00 -7.500000e+00 -1.375000e+01
      vertex  -6.721459e+00 -7.500000e+00 -9.250000e+00
      vertex  -8.221458e+00 -7.500000e+00 -1.375000e+01
    endloop
  endfacet
  facet normal  0.000000e+00 -1.000000e+00  0.000000e+00
    outer loop
      vertex  -8.221458e+00 -7.500000e+00 -1.375000e+01
      vertex  -6.721459e+00 -7.500000e+00 -9.250000e+00
      vertex  -8.221458e+00 -7.500000e+00 -9.250000e+00
    endloop
  endfacet
  facet normal -0.000000e+00  1.000000e+00  0.000000e+00
    outer loop
      vertex  -8.221458e+00 -6.000000e+00 -9.250000e+00
      vertex  -6.721459e+00 -6.000000e+00 -9.250000e+00
      vertex  -8.221458e+00 -6.000000e+00 -1.525000e+01
    endloop
  endfacet
  facet normal  0.000000e+00  1.000000e+00  0.000000e+00
    outer loop
      vertex  -8.221458e+00 -6.000000e+00 -1.525000e+01
      vertex  -6.721459e+00 -6.000000e+00 -9.250000e+00
      vertex  -2.221459e+00 -6.000000e+00 -1.375000e+01
    endloop
  endfacet
  facet normal  0.000000e+00  1.000000e+00  0.000000e+00
    outer loop
      vertex  -8.221458e+00 -6.000000e+00 -1.525000e+01
      vertex  -2.221459e+00 -6.000000e+00 -1.375000e+01
      vertex   8.278542e+00 -6.000000e+00 -1.525000e+01
    endloop
  endfacet
  facet normal  0.000000e+00  1.000000e+00  0.000000e+00
    outer loop
      vertex   8.278542e+00 -6.000000e+00 -1.525000e+01
      vertex  -2.221459e+00 -6.000000e+00 -1.375000e+01
      vertex   4.778541e+00 -6.000000e+00 -1.375000e+01
    endloop
  endfacet
  facet normal  0.000000e+00  1.000000e+00  0.000000e+00
    outer loop
      vertex   8.278542e+00 -6.000000e+00 -1.525000e+01
      vertex   4.778541e+00 -6.000000e+00 -1.375000e+01
      vertex   6.278541e+00 -6.000000e+00 -1.375000e+01
    endloop
  endfacet
  facet normal  0.000000e+00  1.000000e+00 -0.000000e+00
    outer loop
      vertex   6.278541e+00 -6.000000e+00 -1.375000e+01
      vertex   4.778541e+00 -6.000000e+00 -1.375000e+01
      vertex   6.278541e+00 -6.000000e+00 -9.250000e+00
    endloop
  endfacet
  facet normal  0.000000e+00  1.000000e+00  0.000000e+00
    outer loop
      vertex   6.278541e+00 -6.000000e+00 -9.250000e+00
      vertex   4.778541e+00 -6.000000e+00 -1.375000e+01
      vertex   4.778541e+00 -6.000000e+00 -9.250000e+00
    endloop
  endfacet
  facet normal  1.156003e-01  9.812641e-01  1.541338e-01
    outer loop
      vertex   6.278541e+00 -6.000000e+00 -1.375000e+01
      vertex   8.188436e+00 -6.225000e+00 -1.375000e+01
      vertex   8.278542e+00 -6.000000e+00 -1.525000e+01
    endloop
  endfacet
  facet normal  7.071068e-01 -0.000000e+00  7.071068e-01
    outer loop
      vertex  -6.721459e+00 -3.650000e+01 -9.250000e+00
      vertex  -2.221459e+00 -3.650000e+01 -1.375000e+01
      vertex  -6.721459e+00 -3.500000e+01 -9.250000e+00
    endloop
  endfacet
  facet normal  7.071068e-01  0.000000e+00  7.071068e-01
    outer loop
      vertex  -6.721459e+00 -3.500000e+01 -9.250000e+00
      vertex  -2.221459e+00 -3.650000e+01 -1.375000e+01
      vertex  -2.221459e+00 -3.500000e+01 -1.375000e+01
    endloop
  endfacet
  facet normal  0.000000e+00  1.000000e+00  0.000000e+00
    outer loop
      vertex  -2.221459e+00 -3.500000e+01 -1.375000e+01
      vertex  -8.221458e+00 -3.500000e+01 -1.375000e+01
      vertex  -6.721459e+00 -3.500000e+01 -9.250000e+00
    endloop
  endfacet
  facet normal  0.000000e+00  1.000000e+00  0.000000e+00
    outer loop
      vertex  -6.721459e+00 -3.500000e+01 -9.250000e+00
      vertex  -8.221458e+00 -3.500000e+01 -1.375000e+01
      vertex  -8.221458e+00 -3.500000e+01 -9.250000e+00
    endloop
  endfacet
  facet normal  0.000000e+00 -0.000000e+00  1.000000e+00
    outer loop
      vertex  -6.721459e+00 -7.500000e+00 -9.250000e+00
      vertex  -6.721459e+00 -6.000000e+00 -9.250000e+00
      vertex  -8.221458e+00 -7.500000e+00 -9.250000e+00
    endloop
  endfacet
  facet normal  0.000000e+00  0.000000e+00  1.000000e+00
    outer loop
      vertex  -8.221458e+00 -7.500000e+00 -9.250000e+00
      vertex  -6.721459e+00 -6.000000e+00 -9.250000e+00
      vertex  -8.221458e+00 -6.000000e+00 -9.250000e+00
    endloop
  endfacet
  facet normal  0.000000e+00 -0.000000e+00  1.000000e+00
    outer loop
      vertex  -8.221458e+00 -7.500000e+00 -9.250000e+00
      vertex  -8.221458e+00 -6.000000e+00 -9.250000e+00
      vertex  -9.721458e+00 -6.919548e+00 -9.250000e+00
    endloop
  endfacet
  facet normal  0.000000e+00  0.000000e+00  1.000000e+00
    outer loop
      vertex  -9.721458e+00 -6.919548e+00 -9.250000e+00
      vertex  -9.721458e+00 -3.558045e+01 -9.250000e+00
      vertex  -8.221458e+00 -7.500000e+00 -9.250000e+00
    endloop
  endfacet
  facet normal  0.000000e+00  0.000000e+00  1.000000e+00
    outer loop
      vertex  -8.221458e+00 -7.500000e+00 -9.250000e+00
      vertex  -9.721458e+00 -3.558045e+01 -9.250000e+00
      vertex  -8.221458e+00 -3.500000e+01 -9.250000e+00
    endloop
  endfacet
  facet normal  0.000000e+00  0.000000e+00  1.000000e+00
    outer loop
      vertex  -8.221458e+00 -3.500000e+01 -9.250000e+00
      vertex  -9.721458e+00 -3.558045e+01 -9.250000e+00
      vertex  -8.221458e+00 -3.650000e+01 -9.250000e+00
    endloop
  endfacet
  facet normal -0.000000e+00  0.000000e+00  1.000000e+00
    outer loop
      vertex  -8.221458e+00 -3.500000e+01 -9.250000e+00
      vertex  -8.221458e+00 -3.650000e+01 -9.250000e+00
      vertex  -6.721459e+00 -3.500000e+01 -9.250000e+00
    endloop
  endfacet
  facet normal  0.000000e+00  0.000000e+00  1.000000e+00
    outer loop
      vertex  -6.721459e+00 -3.500000e+01 -9.250000e+00
      vertex  -8.221458e+00 -3.650000e+01 -9.250000e+00
      vertex  -6.721459e+00 -3.650000e+01 -9.250000e+00
    endloop
  endfacet
  facet normal  0.000000e+00 -1.000000e+00 -0.000000e+00
    outer loop
      vertex  -6.721459e+00 -3.650000e+01 -9.250000e+00
      vertex  -8.221458e+00 -3.650000e+01 -1.525000e+01
      vertex  -2.221459e+00 -3.650000e+01 -1.375000e+01
    endloop
  endfacet
  facet normal  0.000000e+00 -1.000000e+00 -0.000000e+00
    outer loop
      vertex  -2.221459e+00 -3.650000e+01 -1.375000e+01
      vertex  -8.221458e+00 -3.650000e+01 -1.525000e+01
      vertex   8.278542e+00 -3.650000e+01 -1.525000e+01
    endloop
  endfacet
  facet normal  0.000000e+00 -1.000000e+00  0.000000e+00
    outer loop
      vertex  -2.221459e+00 -3.650000e+01 -1.375000e+01
      vertex   8.278542e+00 -3.650000e+01 -1.525000e+01
      vertex   4.778541e+00 -3.650000e+01 -1.375000e+01
    endloop
  endfacet
  facet normal  0.000000e+00 -1.000000e+00  0.000000e+00
    outer loop
      vertex   4.778541e+00 -3.650000e+01 -1.375000e+01
      vertex   8.278542e+00 -3.650000e+01 -1.525000e+01
      vertex   6.278541e+00 -3.650000e+01 -1.375000e+01
    endloop
  endfacet
  facet normal  0.000000e+00 -1.000000e+00  0.000000e+00
    outer loop
      vertex   4.778541e+00 -3.650000e+01 -1.375000e+01
      vertex   6.278541e+00 -3.650000e+01 -1.375000e+01
      vertex   4.778541e+00 -3.650000e+01 -9.250000e+00
    endloop
  endfacet
  facet normal  0.000000e+00 -1.000000e+00  0.000000e+00
    outer loop
      vertex   4.778541e+00 -3.650000e+01 -9.250000e+00
      vertex   6.278541e+00 -3.650000e+01 -1.375000e+01
      vertex   6.278541e+00 -3.650000e+01 -9.250000e+00
    endloop
  endfacet
  facet normal -0.000000e+00 -1.000000e+00  0.000000e+00
    outer loop
      vertex  -6.721459e+00 -3.650000e+01 -9.250000e+00
      vertex  -8.221458e+00 -3.650000e+01 -9.250000e+00
      vertex  -8.221458e+00 -3.650000e+01 -1.525000e+01
    endloop
  endfacet
  facet normal  0.000000e+00 -1.000000e+00  0.000000e+00
    outer loop
      vertex   8.278542e+00 -3.650000e+01 -1.525000e+01
      vertex   8.278542e+00 -3.650000e+01 -1.375000e+01
      vertex   6.278541e+00 -3.650000e+01 -1.375000e+01
    endloop
  endfacet
  facet normal -1.000000e+00  0.000000e+00  0.000000e+00
    outer loop
      vertex  -9.721458e+00 -3.558045e+01 -9.250000e+00
      vertex  -9.721458e+00 -6.919548e+00 -9.250000e+00
      vertex  -9.721458e+00 -3.558045e+01 -1.375000e+01
    endloop
  endfacet
  facet normal -1.000000e+00  0.000000e+00  0.000000e+00
    outer loop
      vertex  -9.721458e+00 -3.558045e+01 -1.375000e+01
      vertex  -9.721458e+00 -6.919548e+00 -9.250000e+00
      vertex  -9.721458e+00 -6.919548e+00 -1.375000e+01
    endloop
  endfacet
  facet normal  1.000000e+00  0.000000e+00  0.000000e+00
    outer loop
      vertex  -1.172146e+01 -8.145612e+00 -9.250000e+00
      vertex  -1.172146e+01 -3.435439e+01 -9.250000e+00
      vertex  -1.172146e+01 -8.145612e+00 -1.375000e+01
    endloop
  endfacet
  facet normal  1.000000e+00  0.000000e+00  0.000000e+00
    outer loop
      vertex  -1.172146e+01 -8.145612e+00 -1.375000e+01
      vertex  -1.172146e+01 -3.435439e+01 -9.250000e+00
      vertex  -1.172146e+01 -3.435439e+01 -1.375000e+01
    endloop
  endfacet
  facet normal -0.000000e+00  0.000000e+00  1.000000e+00
    outer loop
      vertex  -1.172146e+01 -8.145612e+00 -1.375000e+01
      vertex  -1.172146e+01 -3.435439e+01 -1.375000e+01
      vertex  -9.721458e+00 -6.919548e+00 -1.375000e+01
    endloop
  endfacet
  facet normal  0.000000e+00  0.000000e+00  1.000000e+00
    outer loop
      vertex  -9.721458e+00 -6.919548e+00 -1.375000e+01
      vertex  -1.172146e+01 -3.435439e+01 -1.375000e+01
      vertex  -9.721458e+00 -3.558045e+01 -1.375000e+01
    endloop
  endfacet
  facet normal  0.000000e+00 -0.000000e+00  1.000000e+00
    outer loop
      vertex  -1.172146e+01 -3.435439e+01 -9.250000e+00
      vertex  -1.172146e+01 -8.145612e+00 -9.250000e+00
      vertex  -1.322146e+01 -3.343484e+01 -9.250000e+00
    endloop
  endfacet
  facet normal  0.000000e+00  0.000000e+00  1.000000e+00
    outer loop
      vertex  -1.322146e+01 -3.343484e+01 -9.250000e+00
      vertex  -1.172146e+01 -8.145612e+00 -9.250000e+00
      vertex  -1.322146e+01 -9.065160e+00 -9.250000e+00
    endloop
  endfacet
  facet normal  1.000000e+00  0.000000e+00  0.000000e+00
    outer loop
      vertex   6.278541e+00 -6.000000e+00 -9.250000e+00
      vertex   6.278541e+00 -2.050000e+01 -9.250000e+00
      vertex   6.278541e+00 -6.000000e+00 -1.375000e+01
    endloop
  endfacet
  facet normal  1.000000e+00  0.000000e+00  0.000000e+00
    outer loop
      vertex   6.278541e+00 -6.000000e+00 -1.375000e+01
      vertex   6.278541e+00 -2.050000e+01 -9.250000e+00
      vertex   6.278541e+00 -2.050000e+01 -1.375000e+01
    endloop
  endfacet
  facet normal  0.000000e+00  0.000000e+00  1.000000e+00
    outer loop
      vertex   6.278541e+00 -6.000000e+00 -1.375000e+01
      vertex   6.278541e+00 -2.050000e+01 -1.375000e+01
      vertex   8.188436e+00 -6.225000e+00 -1.375000e+01
    endloop
  endfacet
  facet normal  0.000000e+00  0.000000e+00  1.000000e+00
    outer loop
      vertex   8.188436e+00 -6.225000e+00 -1.375000e+01
      vertex   6.278541e+00 -2.050000e+01 -1.375000e+01
      vertex   8.278542e+00 -2.050000e+01 -1.375000e+01
    endloop
  endfacet
  facet normal -1.000000e+00  0.000000e+00  0.000000e+00
    outer loop
      vertex   8.278542e+00 -3.650000e+01 -1.125000e+01
      vertex   8.278542e+00 -2.200000e+01 -1.125000e+01
      vertex   8.278542e+00 -3.650000e+01 -1.375000e+01
    endloop
  endfacet
  facet normal -1.000000e+00  0.000000e+00  0.000000e+00
    outer loop
      vertex   8.278542e+00 -3.650000e+01 -1.375000e+01
      vertex   8.278542e+00 -2.200000e+01 -1.125000e+01
      vertex   8.278542e+00 -2.200000e+01 -1.375000e+01
    endloop
  endfacet
  facet normal  0.000000e+00 -1.000000e+00  0.000000e+00
    outer loop
      vertex   6.278541e+00 -2.200000e+01 -9.250000e+00
      vertex   6.278541e+00 -2.200000e+01 -1.375000e+01
      vertex   8.278542e+00 -2.200000e+01 -1.125000e+01
    endloop
  endfacet
  facet normal  0.000000e+00 -1.000000e+00 -0.000000e+00
    outer loop
      vertex   8.278542e+00 -2.200000e+01 -1.125000e+01
      vertex   6.278541e+00 -2.200000e+01 -1.375000e+01
      vertex   8.278542e+00 -2.200000e+01 -1.375000e+01
    endloop
  endfacet
  facet normal  1.000000e+00  0.000000e+00  0.000000e+00
    outer loop
      vertex   6.278541e+00 -2.200000e+01 -9.250000e+00
      vertex   6.278541e+00 -3.650000e+01 -9.250000e+00
      vertex   6.278541e+00 -2.200000e+01 -1.375000e+01
    endloop
  endfacet
  facet normal  1.000000e+00  0.000000e+00  0.000000e+00
    outer loop
      vertex   6.278541e+00 -2.200000e+01 -1.375000e+01
      vertex   6.278541e+00 -3.650000e+01 -9.250000e+00
      vertex   6.278541e+00 -3.650000e+01 -1.375000e+01
    endloop
  endfacet
  facet normal  0.000000e+00 -0.000000e+00  1.000000e+00
    outer loop
      vertex   8.278542e+00 -3.650000e+01 -1.375000e+01
      vertex   8.278542e+00 -2.200000e+01 -1.375000e+01
      vertex   6.278541e+00 -3.650000e+01 -1.375000e+01
    endloop
  endfacet
  facet normal  0.000000e+00  0.000000e+00  1.000000e+00
    outer loop
      vertex   6.278541e+00 -3.650000e+01 -1.375000e+01
      vertex   8.278542e+00 -2.200000e+01 -1.375000e+01
      vertex   6.278541e+00 -2.200000e+01 -1.375000e+01
    endloop
  endfacet
  facet normal -0.000000e+00  0.000000e+00  1.000000e+00
    outer loop
      vertex  -8.221458e+00 -2.050000e+01 -1.225000e+01
      vertex  -8.221458e+00 -2.200000e+01 -1.225000e+01
      vertex   4.778541e+00 -2.050000e+01 -1.225000e+01
    endloop
  endfacet
  facet normal  0.000000e+00  0.000000e+00  1.000000e+00
    outer loop
      vertex   4.778541e+00 -2.050000e+01 -1.225000e+01
      vertex  -8.221458e+00 -2.200000e+01 -1.225000e+01
      vertex   4.778541e+00 -2.200000e+01 -1.225000e+01
    endloop
  endfacet
  facet normal -0.000000e+00  1.000000e+00  0.000000e+00
    outer loop
      vertex  -8.221458e+00 -2.050000e+01 -1.225000e+01
      vertex   4.778541e+00 -2.050000e+01 -1.225000e+01
      vertex  -8.221458e+00 -2.050000e+01 -1.375000e+01
    endloop
  endfacet
  facet normal  0.000000e+00  1.000000e+00  0.000000e+00
    outer loop
      vertex  -8.221458e+00 -2.050000e+01 -1.375000e+01
      vertex   4.778541e+00 -2.050000e+01 -1.225000e+01
      vertex   4.778541e+00 -2.050000e+01 -1.375000e+01
    endloop
  endfacet
  facet normal -0.000000e+00  0.000000e+00  1.000000e+00
    outer loop
      vertex  -8.221458e+00 -7.500000e+00 -1.375000e+01
      vertex  -8.221458e+00 -2.050000e+01 -1.375000e+01
      vertex  -2.221459e+00 -7.500000e+00 -1.375000e+01
    endloop
  endfacet
  facet normal  0.000000e+00  0.000000e+00  1.000000e+00
    outer loop
      vertex  -2.221459e+00 -7.500000e+00 -1.375000e+01
      vertex  -8.221458e+00 -2.050000e+01 -1.375000e+01
      vertex   4.778541e+00 -2.050000e+01 -1.375000e+01
    endloop
  endfacet
  facet normal -0.000000e+00  0.000000e+00  1.000000e+00
    outer loop
      vertex  -2.221459e+00 -7.500000e+00 -1.375000e+01
      vertex   4.778541e+00 -2.050000e+01 -1.375000e+01
      vertex   4.778541e+00 -6.000000e+00 -1.375000e+01
    endloop
  endfacet
  facet normal  0.000000e+00  0.000000e+00  1.000000e+00
    outer loop
      vertex   4.778541e+00 -6.000000e+00 -1.375000e+01
      vertex  -2.221459e+00 -6.000000e+00 -1.375000e+01
      vertex  -2.221459e+00 -7.500000e+00 -1.375000e+01
    endloop
  endfacet
  facet normal -1.000000e+00  0.000000e+00  0.000000e+00
    outer loop
      vertex   4.778541e+00 -3.650000e+01 -1.375000e+01
      vertex   4.778541e+00 -3.650000e+01 -9.250000e+00
      vertex   4.778541e+00 -2.200000e+01 -1.225000e+01
    endloop
  endfacet
  facet normal -1.000000e+00  0.000000e+00  0.000000e+00
    outer loop
      vertex   4.778541e+00 -2.200000e+01 -1.225000e+01
      vertex   4.778541e+00 -3.650000e+01 -9.250000e+00
      vertex   4.778541e+00 -6.000000e+00 -9.250000e+00
    endloop
  endfacet
  facet normal -1.000000e+00  0.000000e+00  0.000000e+00
    outer loop
      vertex   4.778541e+00 -2.200000e+01 -1.225000e+01
      vertex   4.778541e+00 -6.000000e+00 -9.250000e+00
      vertex   4.778541e+00 -2.050000e+01 -1.225000e+01
    endloop
  endfacet
  facet normal -1.000000e+00  0.000000e+00  0.000000e+00
    outer loop
      vertex   4.778541e+00 -2.050000e+01 -1.225000e+01
      vertex   4.778541e+00 -6.000000e+00 -9.250000e+00
      vertex   4.778541e+00 -6.000000e+00 -1.375000e+01
    endloop
  endfacet
  facet normal -1.000000e+00  0.000000e+00  0.000000e+00
    outer loop
      vertex   4.778541e+00 -2.050000e+01 -1.225000e+01
      vertex   4.778541e+00 -6.000000e+00 -1.375000e+01
      vertex   4.778541e+00 -2.050000e+01 -1.375000e+01
    endloop
  endfacet
  facet normal -1.000000e+00  0.000000e+00 -0.000000e+00
    outer loop
      vertex   4.778541e+00 -2.200000e+01 -1.225000e+01
      vertex   4.778541e+00 -2.200000e+01 -1.375000e+01
      vertex   4.778541e+00 -3.650000e+01 -1.375000e+01
    endloop
  endfacet
  facet normal -0.000000e+00 -1.000000e+00 -0.000000e+00
    outer loop
      vertex   4.778541e+00 -2.200000e+01 -1.225000e+01
      vertex  -8.221458e+00 -2.200000e+01 -1.225000e+01
      vertex   4.778541e+00 -2.200000e+01 -1.375000e+01
    endloop
  endfacet
  facet normal  0.000000e+00 -1.000000e+00  0.000000e+00
    outer loop
      vertex   4.778541e+00 -2.200000e+01 -1.375000e+01
      vertex  -8.221458e+00 -2.200000e+01 -1.225000e+01
      vertex  -8.221458e+00 -2.200000e+01 -1.375000e+01
    endloop
  endfacet
  facet normal  1.000000e+00  0.000000e+00 -0.000000e+00
    outer loop
      vertex  -8.221458e+00 -7.500000e+00 -1.375000e+01
      vertex  -8.221458e+00 -7.500000e+00 -9.250000e+00
      vertex  -8.221458e+00 -2.050000e+01 -1.225000e+01
    endloop
  endfacet
  facet normal  1.000000e+00  0.000000e+00 -0.000000e+00
    outer loop
      vertex  -8.221458e+00 -2.050000e+01 -1.225000e+01
      vertex  -8.221458e+00 -7.500000e+00 -9.250000e+00
      vertex  -8.221458e+00 -3.500000e+01 -9.250000e+00
    endloop
  endfacet
  facet normal  1.000000e+00  0.000000e+00  0.000000e+00
    outer loop
      vertex  -8.221458e+00 -2.050000e+01 -1.225000e+01
      vertex  -8.221458e+00 -3.500000e+01 -9.250000e+00
      vertex  -8.221458e+00 -2.200000e+01 -1.225000e+01
    endloop
  endfacet
  facet normal  1.000000e+00  0.000000e+00  0.000000e+00
    outer loop
      vertex  -8.221458e+00 -2.200000e+01 -1.225000e+01
      vertex  -8.221458e+00 -3.500000e+01 -9.250000e+00
      vertex  -8.221458e+00 -3.500000e+01 -1.375000e+01
    endloop
  endfacet
  facet normal  1.000000e+00  0.000000e+00  0.000000e+00
    outer loop
      vertex  -8.221458e+00 -2.200000e+01 -1.225000e+01
      vertex  -8.221458e+00 -3.500000e+01 -1.375000e+01
      vertex  -8.221458e+00 -2.200000e+01 -1.375000e+01
    endloop
  endfacet
  facet normal  1.000000e+00  0.000000e+00  0.000000e+00
    outer loop
      vertex  -8.221458e+00 -2.050000e+01 -1.225000e+01
      vertex  -8.221458e+00 -2.050000e+01 -1.375000e+01
      vertex  -8.221458e+00 -7.500000e+00 -1.375000e+01
    endloop
  endfacet
  facet normal  0.000000e+00  0.000000e+00  1.000000e+00
    outer loop
      vertex  -8.221458e+00 -3.500000e+01 -1.375000e+01
      vertex  -2.221459e+00 -3.500000e+01 -1.375000e+01
      vertex  -8.221458e+00 -2.200000e+01 -1.375000e+01
    endloop
  endfacet
  facet normal -0.000000e+00  0.000000e+00  1.000000e+00
    outer loop
      vertex  -8.221458e+00 -2.200000e+01 -1.375000e+01
      vertex  -2.221459e+00 -3.500000e+01 -1.375000e+01
      vertex   4.778541e+00 -2.200000e+01 -1.375000e+01
    endloop
  endfacet
  facet normal  0.000000e+00  0.000000e+00  1.000000e+00
    outer loop
      vertex   4.778541e+00 -2.200000e+01 -1.375000e+01
      vertex  -2.221459e+00 -3.500000e+01 -1.375000e+01
      vertex   4.778541e+00 -3.650000e+01 -1.375000e+01
    endloop
  endfacet
  facet normal  0.000000e+00  0.000000e+00  1.000000e+00
    outer loop
      vertex   4.778541e+00 -3.650000e+01 -1.375000e+01
      vertex  -2.221459e+00 -3.500000e+01 -1.375000e+01
      vertex  -2.221459e+00 -3.650000e+01 -1.375000e+01
    endloop
  endfacet
  facet normal  1.000000e+00  0.000000e+00  0.000000e+00
    outer loop
      vertex   9.778542e+00 -6.667246e+00 -1.275000e+01
      vertex   9.778542e+00 -3.583275e+01 -1.275000e+01
      vertex   9.778542e+00 -6.667246e+00 -1.525000e+01
    endloop
  endfacet
  facet normal  1.000000e+00  0.000000e+00  0.000000e+00
    outer loop
      vertex   9.778542e+00 -6.667246e+00 -1.525000e+01
      vertex   9.778542e+00 -3.583275e+01 -1.275000e+01
      vertex   9.778542e+00 -3.583275e+01 -1.525000e+01
    endloop
  endfacet
  facet normal -5.226419e-01  8.525523e-01  0.000000e+00
    outer loop
      vertex  -9.721458e+00 -6.919548e+00 -9.250000e+00
      vertex  -8.221458e+00 -6.000000e+00 -9.250000e+00
      vertex  -9.721458e+00 -6.919548e+00 -1.375000e+01
    endloop
  endfacet
  facet normal -5.226419e-01  8.525524e-01  0.000000e+00
    outer loop
      vertex  -9.721458e+00 -6.919548e+00 -1.375000e+01
      vertex  -8.221458e+00 -6.000000e+00 -9.250000e+00
      vertex  -8.221458e+00 -6.000000e+00 -1.525000e+01
    endloop
  endfacet
  facet normal -5.226418e-01  8.525524e-01  5.420382e-08
    outer loop
      vertex  -9.721458e+00 -6.919548e+00 -1.375000e+01
      vertex  -8.221458e+00 -6.000000e+00 -1.525000e+01
      vertex  -1.322146e+01 -9.065160e+00 -1.525000e+01
    endloop
  endfacet
  facet normal -5.226418e-01  8.525524e-01 -1.355096e-07
    outer loop
      vertex  -9.721458e+00 -6.919548e+00 -1.375000e+01
      vertex  -1.322146e+01 -9.065160e+00 -1.525000e+01
      vertex  -1.172146e+01 -8.145612e+00 -1.375000e+01
    endloop
  endfacet
  facet normal -5.226419e-01  8.525524e-01  0.000000e+00
    outer loop
      vertex  -1.172146e+01 -8.145612e+00 -1.375000e+01
      vertex  -1.322146e+01 -9.065160e+00 -1.525000e+01
      vertex  -1.322146e+01 -9.065160e+00 -9.250000e+00
    endloop
  endfacet
  facet normal -5.226419e-01  8.525523e-01  0.000000e+00
    outer loop
      vertex  -1.172146e+01 -8.145612e+00 -1.375000e+01
      vertex  -1.322146e+01 -9.065160e+00 -9.250000e+00
      vertex  -1.172146e+01 -8.145612e+00 -9.250000e+00
    endloop
  endfacet
  facet normal -1.000000e+00  0.000000e+00  0.000000e+00
    outer loop
      vertex  -1.322146e+01 -3.343484e+01 -9.250000e+00
      vertex  -1.322146e+01 -9.065160e+00 -9.250000e+00
      vertex  -1.322146e+01 -3.343484e+01 -1.525000e+01
    endloop
  endfacet
  facet normal -1.000000e+00  0.000000e+00  0.000000e+00
    outer loop
      vertex  -1.322146e+01 -3.343484e+01 -1.525000e+01
      vertex  -1.322146e+01 -9.065160e+00 -9.250000e+00
      vertex  -1.322146e+01 -9.065160e+00 -1.525000e+01
    endloop
  endfacet
  facet normal -5.226419e-01 -8.525523e-01 -0.000000e+00
    outer loop
      vertex  -1.172146e+01 -3.435439e+01 -9.250000e+00
      vertex  -1.322146e+01 -3.343484e+01 -9.250000e+00
      vertex  -1.172146e+01 -3.435439e+01 -1.375000e+01
    endloop
  endfacet
  facet normal -5.226419e-01 -8.525524e-01  0.000000e+00
    outer loop
      vertex  -1.172146e+01 -3.435439e+01 -1.375000e+01
      vertex  -1.322146e+01 -3.343484e+01 -9.250000e+00
      vertex  -1.322146e+01 -3.343484e+01 -1.525000e+01
    endloop
  endfacet
  facet normal -5.226417e-01 -8.525524e-01 -2.168153e-07
    outer loop
      vertex  -1.172146e+01 -3.435439e+01 -1.375000e+01
      vertex  -1.322146e+01 -3.343484e+01 -1.525000e+01
      vertex  -8.221458e+00 -3.650000e+01 -1.525000e+01
    endloop
  endfacet
  facet normal -5.226415e-01 -8.525526e-01  5.420383e-07
    outer loop
      vertex  -1.172146e+01 -3.435439e+01 -1.375000e+01
      vertex  -8.221458e+00 -3.650000e+01 -1.525000e+01
      vertex  -9.721458e+00 -3.558045e+01 -1.375000e+01
    endloop
  endfacet
  facet normal -5.226419e-01 -8.525524e-01  0.000000e+00
    outer loop
      vertex  -9.721458e+00 -3.558045e+01 -1.375000e+01
      vertex  -8.221458e+00 -3.650000e+01 -1.525000e+01
      vertex  -8.221458e+00 -3.650000e+01 -9.250000e+00
    endloop
  endfacet
  facet normal -5.226419e-01 -8.525523e-01  0.000000e+00
    outer loop
      vertex  -9.721458e+00 -3.558045e+01 -1.375000e+01
      vertex  -8.221458e+00 -3.650000e+01 -9.250000e+00
      vertex  -9.721458e+00 -3.558045e+01 -9.250000e+00
    endloop
  endfacet
  facet normal  4.064340e-01 -9.136801e-01  0.000000e+00
    outer loop
      vertex   8.278542e+00 -3.650000e+01 -1.125000e+01
      vertex   8.278542e+00 -3.650000e+01 -1.375000e+01
      vertex   9.778542e+00 -3.583275e+01 -1.275000e+01
    endloop
  endfacet
  facet normal  4.064340e-01 -9.136801e-01  0.000000e+00
    outer loop
      vertex   9.778542e+00 -3.583275e+01 -1.275000e+01
      vertex   8.278542e+00 -3.650000e+01 -1.375000e+01
      vertex   9.778542e+00 -3.583275e+01 -1.525000e+01
    endloop
  endfacet
  facet normal  4.064340e-01 -9.136801e-01  0.000000e+00
    outer loop
      vertex   9.778542e+00 -3.583275e+01 -1.525000e+01
      vertex   8.278542e+00 -3.650000e+01 -1.375000e+01
      vertex   8.278542e+00 -3.650000e+01 -1.525000e+01
    endloop
  endfacet
  facet normal -0.000000e+00 -0.000000e+00 -1.000000e+00
    outer loop
      vertex   9.778542e+00 -6.667246e+00 -1.525000e+01
      vertex   9.778542e+00 -3.583275e+01 -1.525000e+01
      vertex   8.278542e+00 -6.000000e+00 -1.525000e+01
    endloop
  endfacet
  facet normal  0.000000e+00  0.000000e+00 -1.000000e+00
    outer loop
      vertex   8.278542e+00 -6.000000e+00 -1.525000e+01
      vertex   9.778542e+00 -3.583275e+01 -1.525000e+01
      vertex   8.278542e+00 -3.650000e+01 -1.525000e+01
    endloop
  endfacet
  facet normal -0.000000e+00 -0.000000e+00 -1.000000e+00
    outer loop
      vertex   8.278542e+00 -6.000000e+00 -1.525000e+01
      vertex   8.278542e+00 -3.650000e+01 -1.525000e+01
      vertex  -8.221458e+00 -6.000000e+00 -1.525000e+01
    endloop
  endfacet
  facet normal  0.000000e+00  0.000000e+00 -1.000000e+00
    outer loop
      vertex  -8.221458e+00 -6.000000e+00 -1.525000e+01
      vertex   8.278542e+00 -3.650000e+01 -1.525000e+01
      vertex  -8.221458e+00 -3.650000e+01 -1.525000e+01
    endloop
  endfacet
  facet normal  0.000000e+00 -0.000000e+00 -1.000000e+00
    outer loop
      vertex  -8.221458e+00 -6.000000e+00 -1.525000e+01
      vertex  -8.221458e+00 -3.650000e+01 -1.525000e+01
      vertex  -1.322146e+01 -9.065160e+00 -1.525000e+01
    endloop
  endfacet
  facet normal  0.000000e+00  0.000000e+00 -1.000000e+00
    outer loop
      vertex  -1.322146e+01 -9.065160e+00 -1.525000e+01
      vertex  -8.221458e+00 -3.650000e+01 -1.525000e+01
      vertex  -1.322146e+01 -3.343484e+01 -1.525000e+01
    endloop
  endfacet
endsolid vcg
